<svg width="108" height="108" viewBox="0 0 108 108" fill="none" xmlns="http://www.w3.org/2000/svg">
<g clip-path="url(#clip0_33_203)">
<path d="M0 32.4C0 21.0589 0 15.3884 2.20712 11.0567C4.14855 7.24641 7.24641 4.14855 11.0567 2.20712C15.3884 0 21.0589 0 32.4 0H75.6C86.9411 0 92.6116 0 96.9433 2.20712C100.754 4.14855 103.851 7.24641 105.793 11.0567C108 15.3884 108 21.0589 108 32.4V75.6C108 86.9411 108 92.6116 105.793 96.9433C103.851 100.754 100.754 103.851 96.9433 105.793C92.6116 108 86.9411 108 75.6 108H32.4C21.0589 108 15.3884 108 11.0567 105.793C7.24641 103.851 4.14855 100.754 2.20712 96.9433C0 92.6116 0 86.9411 0 75.6V32.4Z" fill="#DA1E28"/>
<path opacity="0.27" d="M0.0114288 81C0.0660717 88.8633 0.381882 93.3611 2.20711 96.9433C4.14855 100.754 7.24641 103.851 11.0567 105.793C15.3884 108 21.0589 108 32.4 108H75.6C86.9411 108 92.6116 108 96.9433 105.793C100.754 103.851 103.851 100.754 105.793 96.9433C107.618 93.3611 107.934 88.8633 107.989 81H0.0114288Z" fill="black"/>
<path opacity="0.18" d="M108 54H0V81H108V54Z" fill="black"/>
<path opacity="0.09" d="M108 27H0V54H108V27Z" fill="black"/>
<path d="M35.4375 81V27H72.5625V37.1728H47.3481V48.5156H65.8125V58.6406H47.3481V81H35.4375Z" fill="white"/>
</g>
<defs>
<clipPath id="clip0_33_203">
<rect width="108" height="108" fill="white"/>
</clipPath>
</defs>
</svg>
